{
  "accessors": [
    {
      "bufferView": 2,
      "componentType": 5126,
      "count": 11777,
      "max": [
        0.22653999924659729,
        1.523813009262085,
        0.81021201610565186
      ],
      "min": [
        -0.15564699470996857,
        -0.32096600532531738,
        -0.31721198558807373
      ],
      "type": "VEC3"
    },
    {
      "bufferView": 2,
      "byteOffset": 141324,
      "componentType": 5126,
      "count": 11777,
      "max": [
        1,
        1,
        1
      ],
      "min": [
        -1,
        -1,
        -1
      ],
      "type": "VEC3"
    },
    {
      "bufferView": 3,
      "componentType": 5126,
      "count": 11777,
      "max": [
        1,
        1,
        1,
        1
      ],
      "min": [
        -1,
        -1,
        -1,
        -1
      ],
      "type": "VEC4"
    },
    {
      "bufferView": 1,
      "componentType": 5126,
      "count": 11777,
      "max": [
        0.9972500205039978,
        0.80344498157501221
      ],
      "min": [
        0.0021939999423921108,
        0.0027469999622553587
      ],
      "type": "VEC2"
    },
    {
      "bufferView": 0,
      "componentType": 5125,
      "count": 24378,
      "max": [
        11776
      ],
      "min": [
        0
      ],
      "type": "SCALAR"
    },
    {
      "bufferView": 2,
      "byteOffset": 282648,
      "componentType": 5126,
      "count": 23832,
      "max": [
        0.30585598945617676,
        1.5739150047302246,
        0.82925599813461304
      ],
      "min": [
        -0.30456799268722534,
        -0.41818401217460632,
        -0.36775800585746765
      ],
      "type": "VEC3"
    },
    {
      "bufferView": 2,
      "byteOffset": 568632,
      "componentType": 5126,
      "count": 23832,
      "max": [
        1,
        1,
        1
      ],
      "min": [
        -1,
        -1,
        -1
      ],
      "type": "VEC3"
    },
    {
      "bufferView": 3,
      "byteOffset": 188432,
      "componentType": 5126,
      "count": 23832,
      "max": [
        1,
        1,
        1,
        1
      ],
      "min": [
        -1,
        -1,
        -0.99999988079071045,
        -1
      ],
      "type": "VEC4"
    },
    {
      "bufferView": 1,
      "byteOffset": 94216,
      "componentType": 5126,
      "count": 23832,
      "max": [
        0.99871599674224854,
        0.99555701017379761
      ],
      "min": [
        0.0027509999927133322,
        0.0027409999165683985
      ],
      "type": "VEC2"
    },
    {
      "bufferView": 0,
      "byteOffset": 97512,
      "componentType": 5125,
      "count": 97086,
      "max": [
        23831
      ],
      "min": [
        0
      ],
      "type": "SCALAR"
    }
  ],
  "asset": {
    "extras": {
      "author": "krichwow (https://sketchfab.com/krichwow)",
      "license": "CC-BY-4.0 (http://creativecommons.org/licenses/by/4.0/)",
      "source": "https://sketchfab.com/3d-models/bike-f256203558c24ea09385a861b917c75a",
      "title": "Bike"
    },
    "generator": "Sketchfab-6.9.0",
    "version": "2.0"
  },
  "bufferViews": [
    {
      "buffer": 0,
      "byteLength": 485856,
      "byteOffset": 0,
      "name": "floatBufferViews",
      "target": 34963
    },
    {
      "buffer": 0,
      "byteLength": 284872,
      "byteOffset": 485856,
      "byteStride": 8,
      "name": "floatBufferViews",
      "target": 34962
    },
    {
      "buffer": 0,
      "byteLength": 854616,
      "byteOffset": 770728,
      "byteStride": 12,
      "name": "floatBufferViews",
      "target": 34962
    },
    {
      "buffer": 0,
      "byteLength": 569744,
      "byteOffset": 1625344,
      "byteStride": 16,
      "name": "floatBufferViews",
      "target": 34962
    }
  ],
  "buffers": [
    {
      "byteLength": 2195088,
      "uri": "scene.bin"
    }
  ],
  "images": [
    {
      "uri": "textures/Bike_baseColor.png"
    },
    {
      "uri": "textures/Bike_metallicRoughness.png"
    },
    {
      "uri": "textures/Bike_normal.png"
    }
  ],
  "materials": [
    {
      "alphaMode": "BLEND",
      "doubleSided": true,
      "name": "Bike",
      "normalTexture": {
        "index": 2,
        "scale": 1,
        "texCoord": 0
      },
      "pbrMetallicRoughness": {
        "baseColorFactor": [
          1,
          1,
          1,
          1
        ],
        "baseColorTexture": {
          "index": 0,
          "texCoord": 0
        },
        "metallicFactor": 1,
        "metallicRoughnessTexture": {
          "index": 1,
          "texCoord": 0
        },
        "roughnessFactor": 1
      }
    }
  ],
  "meshes": [
    {
      "primitives": [
        {
          "attributes": {
            "NORMAL": 1,
            "POSITION": 0,
            "TANGENT": 2,
            "TEXCOORD_0": 3
          },
          "indices": 4,
          "material": 0,
          "mode": 4
        }
      ]
    },
    {
      "primitives": [
        {
          "attributes": {
            "NORMAL": 6,
            "POSITION": 5,
            "TANGENT": 7,
            "TEXCOORD_0": 8
          },
          "indices": 9,
          "material": 0,
          "mode": 4
        }
      ]
    }
  ],
  "nodes": [
    {
      "children": [
        1
      ],
      "name": "RootNode (gltf orientation matrix)",
      "rotation": [
        -0.70710678118654746,
        -0,
        -0,
        0.70710678118654757
      ]
    },
    {
      "children": [
        2
      ],
      "name": "RootNode (model correction matrix)"
    },
    {
      "children": [
        3,
        4
      ],
      "name": "Bike_2.obj.cleaner.materialmerger.gles"
    },
    {
      "mesh": 0,
      "name": ""
    },
    {
      "mesh": 1,
      "name": ""
    }
  ],
  "samplers": [
    {
      "magFilter": 9729,
      "minFilter": 9987,
      "wrapS": 10497,
      "wrapT": 10497
    }
  ],
  "scene": 0,
  "scenes": [
    {
      "name": "OSG_Scene",
      "nodes": [
        0
      ]
    }
  ],
  "textures": [
    {
      "sampler": 0,
      "source": 0
    },
    {
      "sampler": 0,
      "source": 1
    },
    {
      "sampler": 0,
      "source": 2
    }
  ]
}

