{
  "accessors": [
    {
      "bufferView": 2,
      "componentType": 5126,
      "count": 600,
      "max": [
        61.929920196533203,
        1.6307787895202637,
        2.7127940654754639
      ],
      "min": [
        -62.479927062988281,
        -0.84945487976074219,
        0.71279466152191162
      ],
      "type": "VEC3"
    },
    {
      "bufferView": 2,
      "byteOffset": 7200,
      "componentType": 5126,
      "count": 600,
      "max": [
        1,
        1,
        1
      ],
      "min": [
        -1,
        -0.98432087898254395,
        -1
      ],
      "type": "VEC3"
    },
    {
      "bufferView": 3,
      "componentType": 5126,
      "count": 600,
      "max": [
        1,
        0.17638790607452393,
        1,
        1
      ],
      "min": [
        -1,
        0,
        0,
        1
      ],
      "type": "VEC4"
    },
    {
      "bufferView": 1,
      "componentType": 5126,
      "count": 600,
      "max": [
        0.875,
        1
      ],
      "min": [
        0.125,
        0
      ],
      "type": "VEC2"
    },
    {
      "bufferView": 0,
      "componentType": 5125,
      "count": 900,
      "max": [
        599
      ],
      "min": [
        0
      ],
      "type": "SCALAR"
    },
    {
      "bufferView": 2,
      "byteOffset": 14400,
      "componentType": 5126,
      "count": 840,
      "max": [
        64.820693969726562,
        1.6559910774230957,
        1.3551837205886841
      ],
      "min": [
        -64.869903564453125,
        -1.8932768106460571,
        -2.1940839290618896
      ],
      "type": "VEC3"
    },
    {
      "bufferView": 2,
      "byteOffset": 24480,
      "componentType": 5126,
      "count": 840,
      "max": [
        1,
        1,
        1
      ],
      "min": [
        -1,
        -1,
        -1
      ],
      "type": "VEC3"
    },
    {
      "bufferView": 3,
      "byteOffset": 9600,
      "componentType": 5126,
      "count": 840,
      "max": [
        1,
        0,
        1,
        1
      ],
      "min": [
        -1,
        0,
        0,
        1
      ],
      "type": "VEC4"
    },
    {
      "bufferView": 1,
      "byteOffset": 4800,
      "componentType": 5126,
      "count": 840,
      "max": [
        0.875,
        1
      ],
      "min": [
        0.125,
        0
      ],
      "type": "VEC2"
    },
    {
      "bufferView": 0,
      "byteOffset": 3600,
      "componentType": 5125,
      "count": 1260,
      "max": [
        839
      ],
      "min": [
        0
      ],
      "type": "SCALAR"
    },
    {
      "bufferView": 2,
      "byteOffset": 34560,
      "componentType": 5126,
      "count": 148,
      "max": [
        1,
        1.0002037286758423,
        4.3550615310668945
      ],
      "min": [
        -1,
        -0.85341286659240723,
        -1
      ],
      "type": "VEC3"
    },
    {
      "bufferView": 2,
      "byteOffset": 36336,
      "componentType": 5126,
      "count": 148,
      "max": [
        1,
        1,
        1
      ],
      "min": [
        -1,
        -1,
        -1
      ],
      "type": "VEC3"
    },
    {
      "bufferView": 3,
      "byteOffset": 23040,
      "componentType": 5126,
      "count": 148,
      "max": [
        1,
        1,
        1,
        1
      ],
      "min": [
        -1,
        0,
        0,
        -1
      ],
      "type": "VEC4"
    },
    {
      "bufferView": 1,
      "byteOffset": 11520,
      "componentType": 5126,
      "count": 148,
      "max": [
        0.75,
        0.875
      ],
      "min": [
        0.25,
        0.375
      ],
      "type": "VEC2"
    },
    {
      "bufferView": 0,
      "byteOffset": 8640,
      "componentType": 5125,
      "count": 324,
      "max": [
        147
      ],
      "min": [
        0
      ],
      "type": "SCALAR"
    },
    {
      "bufferView": 2,
      "byteOffset": 38112,
      "componentType": 5126,
      "count": 18,
      "max": [
        0.92517006397247314,
        0.6980668306350708,
        1.8801088333129883
      ],
      "min": [
        -0.92517006397247314,
        0.6284792423248291,
        1
      ],
      "type": "VEC3"
    },
    {
      "bufferView": 2,
      "byteOffset": 38328,
      "componentType": 5126,
      "count": 18,
      "max": [
        0,
        1,
        1
      ],
      "min": [
        0,
        -1,
        0
      ],
      "type": "VEC3"
    },
    {
      "bufferView": 3,
      "byteOffset": 25408,
      "componentType": 5126,
      "count": 18,
      "max": [
        1,
        1,
        0,
        1
      ],
      "min": [
        -1,
        0,
        0,
        -1
      ],
      "type": "VEC4"
    },
    {
      "bufferView": 1,
      "byteOffset": 12704,
      "componentType": 5126,
      "count": 18,
      "max": [
        0.75,
        0.57119846343994141
      ],
      "min": [
        0.6343536376953125,
        0.56249982118606567
      ],
      "type": "VEC2"
    },
    {
      "bufferView": 0,
      "byteOffset": 9936,
      "componentType": 5125,
      "count": 36,
      "max": [
        17
      ],
      "min": [
        0
      ],
      "type": "SCALAR"
    },
    {
      "bufferView": 2,
      "byteOffset": 38544,
      "componentType": 5126,
      "count": 96,
      "max": [
        28.109712600708008,
        6.6001968383789062,
        0.8805767297744751
      ],
      "min": [
        -28.109712600708008,
        -5.3988065719604492,
        -1.0469793081283569
      ],
      "type": "VEC3"
    },
    {
      "bufferView": 2,
      "byteOffset": 39696,
      "componentType": 5126,
      "count": 96,
      "max": [
        1,
        1,
        1
      ],
      "min": [
        -1,
        -1,
        -1
      ],
      "type": "VEC3"
    },
    {
      "bufferView": 3,
      "byteOffset": 25696,
      "componentType": 5126,
      "count": 96,
      "max": [
        1,
        0,
        1,
        1
      ],
      "min": [
        -1,
        0,
        0,
        -1
      ],
      "type": "VEC4"
    },
    {
      "bufferView": 1,
      "byteOffset": 12848,
      "componentType": 5126,
      "count": 96,
      "max": [
        0.875,
        1
      ],
      "min": [
        0.125,
        0
      ],
      "type": "VEC2"
    },
    {
      "bufferView": 0,
      "byteOffset": 10080,
      "componentType": 5125,
      "count": 144,
      "max": [
        95
      ],
      "min": [
        0
      ],
      "type": "SCALAR"
    },
    {
      "bufferView": 2,
      "byteOffset": 40848,
      "componentType": 5126,
      "count": 554,
      "max": [
        1.1052490472793579,
        2.9900050163269043,
        21.489946365356445
      ],
      "min": [
        -1.1052490472793579,
        0.70298498868942261,
        -15.930329322814941
      ],
      "type": "VEC3"
    },
    {
      "bufferView": 2,
      "byteOffset": 47496,
      "componentType": 5126,
      "count": 554,
      "max": [
        1,
        1,
        1
      ],
      "min": [
        -1,
        -1,
        -1
      ],
      "type": "VEC3"
    },
    {
      "bufferView": 3,
      "byteOffset": 27232,
      "componentType": 5126,
      "count": 554,
      "max": [
        1,
        1,
        1,
        1
      ],
      "min": [
        -1,
        -1,
        -1,
        -1
      ],
      "type": "VEC4"
    },
    {
      "bufferView": 1,
      "byteOffset": 13616,
      "componentType": 5126,
      "count": 554,
      "max": [
        0.75,
        0.875
      ],
      "min": [
        0.17996354401111603,
        0.12125297635793686
      ],
      "type": "VEC2"
    },
    {
      "bufferView": 0,
      "byteOffset": 10656,
      "componentType": 5125,
      "count": 1560,
      "max": [
        553
      ],
      "min": [
        0
      ],
      "type": "SCALAR"
    },
    {
      "bufferView": 2,
      "byteOffset": 54144,
      "componentType": 5126,
      "count": 192,
      "max": [
        3.2415039539337158,
        1.453972339630127,
        2.5675969123840332
      ],
      "min": [
        -3.2415039539337158,
        -1.0625728368759155,
        -1.9033153057098389
      ],
      "type": "VEC3"
    },
    {
      "bufferView": 2,
      "byteOffset": 56448,
      "componentType": 5126,
      "count": 192,
      "max": [
        1,
        1,
        1
      ],
      "min": [
        -1,
        -1,
        -1
      ],
      "type": "VEC3"
    },
    {
      "bufferView": 3,
      "byteOffset": 36096,
      "componentType": 5126,
      "count": 192,
      "max": [
        1,
        0,
        1,
        1
      ],
      "min": [
        -1,
        0,
        0,
        1
      ],
      "type": "VEC4"
    },
    {
      "bufferView": 1,
      "byteOffset": 18048,
      "componentType": 5126,
      "count": 192,
      "max": [
        0.875,
        1
      ],
      "min": [
        0.125,
        0
      ],
      "type": "VEC2"
    },
    {
      "bufferView": 0,
      "byteOffset": 16896,
      "componentType": 5125,
      "count": 288,
      "max": [
        191
      ],
      "min": [
        0
      ],
      "type": "SCALAR"
    },
    {
      "bufferView": 2,
      "byteOffset": 58752,
      "componentType": 5126,
      "count": 560,
      "max": [
        1,
        1.0950162410736084,
        1.0095981359481812
      ],
      "min": [
        -1,
        -1.0000004768371582,
        -1
      ],
      "type": "VEC3"
    },
    {
      "bufferView": 2,
      "byteOffset": 65472,
      "componentType": 5126,
      "count": 560,
      "max": [
        0.99976801872253418,
        1,
        0.99518382549285889
      ],
      "min": [
        -0.99976801872253418,
        -1,
        -0.99518370628356934
      ],
      "type": "VEC3"
    },
    {
      "bufferView": 3,
      "byteOffset": 39168,
      "componentType": 5126,
      "count": 560,
      "max": [
        0.99518191814422607,
        0.21759358048439026,
        1,
        1
      ],
      "min": [
        -0.99518191814422607,
        -0.22464084625244141,
        -0.99494707584381104,
        -1
      ],
      "type": "VEC4"
    },
    {
      "bufferView": 1,
      "byteOffset": 19584,
      "componentType": 5126,
      "count": 560,
      "max": [
        1,
        0.875
      ],
      "min": [
        0,
        0.375
      ],
      "type": "VEC2"
    },
    {
      "bufferView": 1,
      "byteOffset": 24064,
      "componentType": 5126,
      "count": 560,
      "max": [
        0,
        0
      ],
      "min": [
        0,
        0
      ],
      "type": "VEC2"
    },
    {
      "bufferView": 0,
      "byteOffset": 18048,
      "componentType": 5125,
      "count": 1116,
      "max": [
        559
      ],
      "min": [
        0
      ],
      "type": "SCALAR"
    }
  ],
  "asset": {
    "extras": {
      "author": "Diego T. Yamaguchi (https://sketchfab.com/freshlybaked)",
      "license": "CC-BY-4.0 (http://creativecommons.org/licenses/by/4.0/)",
      "source": "https://sketchfab.com/3d-models/piano-0b5b53c652804d00981978f36dfc2ace",
      "title": "Piano"
    },
    "generator": "Sketchfab-4.97.1",
    "version": "2.0"
  },
  "bufferViews": [
    {
      "buffer": 0,
      "byteLength": 22512,
      "byteOffset": 0,
      "name": "floatBufferViews",
      "target": 34963
    },
    {
      "buffer": 0,
      "byteLength": 28544,
      "byteOffset": 22512,
      "byteStride": 8,
      "name": "floatBufferViews",
      "target": 34962
    },
    {
      "buffer": 0,
      "byteLength": 72192,
      "byteOffset": 51056,
      "byteStride": 12,
      "name": "floatBufferViews",
      "target": 34962
    },
    {
      "buffer": 0,
      "byteLength": 48128,
      "byteOffset": 123248,
      "byteStride": 16,
      "name": "floatBufferViews",
      "target": 34962
    }
  ],
  "buffers": [
    {
      "byteLength": 171376,
      "uri": "scene.bin"
    }
  ],
  "materials": [
    {
      "doubleSided": true,
      "emissiveFactor": [
        0,
        0,
        0
      ],
      "name": "black",
      "pbrMetallicRoughness": {
        "baseColorFactor": [
          0.014662,
          0.0130416,
          0.0127505,
          1
        ],
        "metallicFactor": 0,
        "roughnessFactor": 0.5
      }
    },
    {
      "doubleSided": true,
      "emissiveFactor": [
        0,
        0,
        0
      ],
      "name": "white",
      "pbrMetallicRoughness": {
        "baseColorFactor": [
          1,
          1,
          1,
          1
        ],
        "metallicFactor": 0,
        "roughnessFactor": 0.84387974630000007
      }
    },
    {
      "doubleSided": true,
      "emissiveFactor": [
        0,
        0,
        0
      ],
      "name": "material",
      "pbrMetallicRoughness": {
        "baseColorFactor": [
          0.47230732040000001,
          0.0248495252,
          0.0248495252,
          1
        ],
        "metallicFactor": 0,
        "roughnessFactor": 0.78091097700000001
      }
    },
    {
      "doubleSided": true,
      "emissiveFactor": [
        0,
        0,
        0
      ],
      "name": "gold",
      "pbrMetallicRoughness": {
        "baseColorFactor": [
          0.326372,
          0.30468000000000001,
          0.058335999999999999,
          1
        ],
        "metallicFactor": 0,
        "roughnessFactor": 0.93481734780000003
      }
    }
  ],
  "meshes": [
    {
      "name": "keys_black_0",
      "primitives": [
        {
          "attributes": {
            "NORMAL": 1,
            "POSITION": 0,
            "TANGENT": 2,
            "TEXCOORD_0": 3
          },
          "indices": 4,
          "material": 0,
          "mode": 4
        }
      ]
    },
    {
      "name": "keys_white_0",
      "primitives": [
        {
          "attributes": {
            "NORMAL": 6,
            "POSITION": 5,
            "TANGENT": 7,
            "TEXCOORD_0": 8
          },
          "indices": 9,
          "material": 1,
          "mode": 4
        }
      ]
    },
    {
      "name": "key-support_black_0",
      "primitives": [
        {
          "attributes": {
            "NORMAL": 11,
            "POSITION": 10,
            "TANGENT": 12,
            "TEXCOORD_0": 13
          },
          "indices": 14,
          "material": 0,
          "mode": 4
        }
      ]
    },
    {
      "name": "key-support_red_0",
      "primitives": [
        {
          "attributes": {
            "NORMAL": 16,
            "POSITION": 15,
            "TANGENT": 17,
            "TEXCOORD_0": 18
          },
          "indices": 19,
          "material": 2,
          "mode": 4
        }
      ]
    },
    {
      "name": "support_black_0",
      "primitives": [
        {
          "attributes": {
            "NORMAL": 21,
            "POSITION": 20,
            "TANGENT": 22,
            "TEXCOORD_0": 23
          },
          "indices": 24,
          "material": 0,
          "mode": 4
        }
      ]
    },
    {
      "name": "piano-shell_black_0",
      "primitives": [
        {
          "attributes": {
            "NORMAL": 26,
            "POSITION": 25,
            "TANGENT": 27,
            "TEXCOORD_0": 28
          },
          "indices": 29,
          "material": 0,
          "mode": 4
        }
      ]
    },
    {
      "name": "pedals_gold_0",
      "primitives": [
        {
          "attributes": {
            "NORMAL": 31,
            "POSITION": 30,
            "TANGENT": 32,
            "TEXCOORD_0": 33
          },
          "indices": 34,
          "material": 3,
          "mode": 4
        }
      ]
    },
    {
      "name": "emblem_black_0",
      "primitives": [
        {
          "attributes": {
            "NORMAL": 36,
            "POSITION": 35,
            "TANGENT": 37,
            "TEXCOORD_0": 38,
            "TEXCOORD_1": 39
          },
          "indices": 40,
          "material": 0,
          "mode": 4
        }
      ]
    }
  ],
  "nodes": [
    {
      "children": [
        1
      ],
      "name": "RootNode (gltf orientation matrix)",
      "rotation": [
        -0.70710678118654746,
        -0,
        -0,
        0.70710678118654757
      ]
    },
    {
      "children": [
        2
      ],
      "name": "RootNode (model correction matrix)"
    },
    {
      "children": [
        3
      ],
      "matrix": [
        1,
        0,
        0,
        0,
        0,
        0,
        1,
        0,
        0,
        -1,
        0,
        0,
        0,
        0,
        0,
        1
      ],
      "name": "42f36a8c2c534d4b88730380fd36ae9b.fbx"
    },
    {
      "children": [
        4,
        7,
        10,
        12,
        14,
        16
      ],
      "name": "RootNode"
    },
    {
      "children": [
        5,
        6
      ],
      "matrix": [
        6.6959633827209473,
        0,
        0,
        0,
        0,
        -6.2427052272046474e-06,
        -38.317451477050277,
        0,
        0,
        6.6959633827208584,
        -1.0909109034957225e-06,
        0,
        0,
        345.61065673828125,
        0,
        1
      ],
      "name": "keys"
    },
    {
      "mesh": 0,
      "name": "keys_black_0"
    },
    {
      "mesh": 1,
      "name": "keys_white_0"
    },
    {
      "children": [
        8,
        9
      ],
      "matrix": [
        469.56768798828125,
        0,
        0,
        0,
        0,
        -1.6292067939183141e-05,
        -99.999999999998678,
        0,
        0,
        20.095834732055398,
        -3.2740270474924712e-06,
        0,
        0,
        320.363525390625,
        0,
        1
      ],
      "name": "key-support"
    },
    {
      "mesh": 2,
      "name": "key-support_black_0"
    },
    {
      "mesh": 3,
      "name": "key-support_red_0"
    },
    {
      "children": [
        11
      ],
      "matrix": [
        17.510185241699219,
        0,
        0,
        0,
        0,
        -3.0273331419440128e-06,
        -18.581638336181395,
        0,
        0,
        160.22557067870883,
        -2.6104058830919489e-05,
        0,
        0,
        167.58383178710938,
        0,
        1
      ],
      "name": "support"
    },
    {
      "mesh": 4,
      "name": "support_black_0"
    },
    {
      "children": [
        13
      ],
      "matrix": [
        469.56768798828125,
        0,
        0,
        0,
        0,
        -1.6292067939183141e-05,
        -99.999999999998678,
        0,
        0,
        20.095834732055398,
        -3.2740270474924712e-06,
        0,
        0,
        320.363525390625,
        27.016300201416016,
        1
      ],
      "name": "piano-shell"
    },
    {
      "mesh": 5,
      "name": "piano-shell_black_0"
    },
    {
      "children": [
        15
      ],
      "matrix": [
        29.107109069824219,
        0,
        0,
        0,
        0,
        -9.4074386785992883e-06,
        -57.742446899413302,
        0,
        0,
        13.856726646423157,
        -2.257547319382184e-06,
        0,
        0,
        33.712459564208984,
        -95.59375,
        1
      ],
      "name": "pedals"
    },
    {
      "mesh": 6,
      "name": "pedals_gold_0"
    },
    {
      "children": [
        17
      ],
      "matrix": [
        76.754409790039062,
        4.942218127272895e-16,
        -7.1673331805259506e-18,
        0,
        -5.5763749871609615e-19,
        -0.0577282820581944,
        -9.952336733695077,
        0,
        -4.9386641253074362e-16,
        76.692763477102062,
        -0.44485446988938099,
        0,
        1.4258206517166369e-17,
        544.0570068359375,
        -92.793182373046875,
        1
      ],
      "name": "emblem"
    },
    {
      "mesh": 7,
      "name": "emblem_black_0"
    }
  ],
  "scene": 0,
  "scenes": [
    {
      "name": "OSG_Scene",
      "nodes": [
        0
      ]
    }
  ]
}

