{
  "accessors": [
    {
      "bufferView": 2,
      "componentType": 5126,
      "count": 32,
      "max": [
        0.15910699963569641,
        0.037193000316619873,
        0.23764200508594513
      ],
      "min": [
        0.065894998610019684,
        -0.17177000641822815,
        0.1888899952173233
      ],
      "type": "VEC3"
    },
    {
      "bufferView": 2,
      "byteOffset": 384,
      "componentType": 5126,
      "count": 32,
      "max": [
        0.9840470552444458,
        0.9840470552444458,
        -0.17790678143501282
      ],
      "min": [
        -0.9840470552444458,
        -0.9840470552444458,
        -0.85018205642700195
      ],
      "type": "VEC3"
    },
    {
      "bufferView": 0,
      "componentType": 5125,
      "count": 96,
      "max": [
        31
      ],
      "min": [
        0
      ],
      "type": "SCALAR"
    },
    {
      "bufferView": 2,
      "byteOffset": 768,
      "componentType": 5126,
      "count": 48,
      "max": [
        0.161654993891716,
        0.039740998297929764,
        0.24820099771022797
      ],
      "min": [
        0.063346996903419495,
        -0.17431899905204773,
        0.23764200508594513
      ],
      "type": "VEC3"
    },
    {
      "bufferView": 2,
      "byteOffset": 1344,
      "componentType": 5126,
      "count": 48,
      "max": [
        0.77641981840133667,
        0.77641981840133667,
        0.63021612167358398
      ],
      "min": [
        -0.77641981840133667,
        -0.77641981840133667,
        -0.85018205642700195
      ],
      "type": "VEC3"
    },
    {
      "bufferView": 0,
      "byteOffset": 384,
      "componentType": 5125,
      "count": 228,
      "max": [
        47
      ],
      "min": [
        0
      ],
      "type": "SCALAR"
    },
    {
      "bufferView": 2,
      "byteOffset": 1920,
      "componentType": 5126,
      "count": 32,
      "max": [
        0.15064400434494019,
        0.0287299994379282,
        0.23321600258350372
      ],
      "min": [
        0.074358001351356506,
        -0.16330699622631073,
        0.1933169960975647
      ],
      "type": "VEC3"
    },
    {
      "bufferView": 2,
      "byteOffset": 2304,
      "componentType": 5126,
      "count": 32,
      "max": [
        0.9840470552444458,
        0.9840470552444458,
        -0.17790678143501282
      ],
      "min": [
        -0.9840470552444458,
        -0.9840470552444458,
        -0.1779085099697113
      ],
      "type": "VEC3"
    },
    {
      "bufferView": 0,
      "byteOffset": 1296,
      "componentType": 5125,
      "count": 96,
      "max": [
        31
      ],
      "min": [
        0
      ],
      "type": "SCALAR"
    },
    {
      "bufferView": 2,
      "byteOffset": 2688,
      "componentType": 5126,
      "count": 116,
      "max": [
        0.1895730048418045,
        0.1895730048418045,
        0.1895730048418045
      ],
      "min": [
        -0.27998000383377075,
        -0.1895730048418045,
        -0.1895730048418045
      ],
      "type": "VEC3"
    },
    {
      "bufferView": 2,
      "byteOffset": 4080,
      "componentType": 5126,
      "count": 116,
      "max": [
        1,
        1,
        1
      ],
      "min": [
        -1,
        -1,
        -1
      ],
      "type": "VEC3"
    },
    {
      "bufferView": 0,
      "byteOffset": 1680,
      "componentType": 5125,
      "count": 480,
      "max": [
        115
      ],
      "min": [
        0
      ],
      "type": "SCALAR"
    },
    {
      "bufferView": 2,
      "byteOffset": 5472,
      "componentType": 5126,
      "count": 48,
      "max": [
        0.1895730048418045,
        0.1895730048418045,
        0.1895730048418045
      ],
      "min": [
        -0.28156998753547668,
        -0.063190996646881104,
        -0.190994992852211
      ],
      "type": "VEC3"
    },
    {
      "bufferView": 2,
      "byteOffset": 6048,
      "componentType": 5126,
      "count": 48,
      "max": [
        0.7071068286895752,
        1,
        1
      ],
      "min": [
        -1,
        -0.58587926626205444,
        -0.99994909763336182
      ],
      "type": "VEC3"
    },
    {
      "bufferView": 0,
      "byteOffset": 3600,
      "componentType": 5125,
      "count": 162,
      "max": [
        47
      ],
      "min": [
        0
      ],
      "type": "SCALAR"
    },
    {
      "bufferView": 2,
      "byteOffset": 6624,
      "componentType": 5126,
      "count": 152,
      "max": [
        0.1895730048418045,
        0.22730900347232819,
        0.06973700225353241
      ],
      "min": [
        -0.29212099313735962,
        -0.1895730048418045,
        -0.077926002442836761
      ],
      "type": "VEC3"
    },
    {
      "bufferView": 2,
      "byteOffset": 8448,
      "componentType": 5126,
      "count": 152,
      "max": [
        1,
        1,
        1
      ],
      "min": [
        -0.81063449382781982,
        -1,
        -0.95300102233886719
      ],
      "type": "VEC3"
    },
    {
      "bufferView": 1,
      "componentType": 5126,
      "count": 152,
      "max": [
        0,
        0
      ],
      "min": [
        0,
        0
      ],
      "type": "VEC2"
    },
    {
      "bufferView": 0,
      "byteOffset": 4248,
      "componentType": 5125,
      "count": 768,
      "max": [
        151
      ],
      "min": [
        0
      ],
      "type": "SCALAR"
    },
    {
      "bufferView": 2,
      "byteOffset": 10272,
      "componentType": 5126,
      "count": 16,
      "max": [
        -0.043815001845359802,
        0.22730900347232819,
        0.1895730048418045
      ],
      "min": [
        -0.16356900334358215,
        0.1895730048418045,
        -0.063190996646881104
      ],
      "type": "VEC3"
    },
    {
      "bufferView": 2,
      "byteOffset": 10464,
      "componentType": 5126,
      "count": 16,
      "max": [
        0.7071068286895752,
        0.7071068286895752,
        0.90453410148620605
      ],
      "min": [
        -0.7071068286895752,
        0.30151134729385376,
        0
      ],
      "type": "VEC3"
    },
    {
      "bufferView": 0,
      "byteOffset": 7320,
      "componentType": 5125,
      "count": 60,
      "max": [
        15
      ],
      "min": [
        0
      ],
      "type": "SCALAR"
    }
  ],
  "asset": {
    "extras": {
      "author": "CameronMckenzie (https://sketchfab.com/CameronMckenzie)",
      "license": "CC-BY-4.0 (http://creativecommons.org/licenses/by/4.0/)",
      "source": "https://sketchfab.com/models/bf563e43db594b03a66efd8bb282c503",
      "title": "Low Poly Coffee Machine  #MozHubsProp"
    },
    "generator": "Sketchfab-3.47.8",
    "version": "2.0"
  },
  "bufferViews": [
    {
      "buffer": 0,
      "byteLength": 7560,
      "byteOffset": 0,
      "name": "floatBufferViews",
      "target": 34963
    },
    {
      "buffer": 0,
      "byteLength": 1216,
      "byteOffset": 7560,
      "byteStride": 8,
      "name": "floatBufferViews",
      "target": 34962
    },
    {
      "buffer": 0,
      "byteLength": 10656,
      "byteOffset": 8776,
      "byteStride": 12,
      "name": "floatBufferViews",
      "target": 34962
    }
  ],
  "buffers": [
    {
      "byteLength": 19432,
      "uri": "scene.bin"
    }
  ],
  "images": [
    {
      "uri": "textures/coffee_maker_ss_baseColor.jpeg"
    }
  ],
  "materials": [
    {
      "alphaMode": "BLEND",
      "doubleSided": true,
      "emissiveFactor": [
        0,
        0,
        0
      ],
      "name": "bean_holder_glass",
      "pbrMetallicRoughness": {
        "baseColorFactor": [
          0.078805,
          0.078805,
          0.078805,
          0.24074100000000001
        ],
        "metallicFactor": 0,
        "roughnessFactor": 0.84349154199999998
      }
    },
    {
      "doubleSided": true,
      "emissiveFactor": [
        0,
        0,
        0
      ],
      "name": "bean_holder_top",
      "pbrMetallicRoughness": {
        "baseColorFactor": [
          0.020316000000000001,
          0.020316000000000001,
          0.020316000000000001,
          1
        ],
        "metallicFactor": 0,
        "roughnessFactor": 0.94493218599999995
      }
    },
    {
      "doubleSided": true,
      "emissiveFactor": [
        0,
        0,
        0
      ],
      "name": "coffee_beans",
      "pbrMetallicRoughness": {
        "baseColorFactor": [
          0.031745000000000002,
          0.011313999999999999,
          0.002771,
          1
        ],
        "metallicFactor": 0,
        "roughnessFactor": 0.84349154199999998
      }
    },
    {
      "doubleSided": true,
      "emissiveFactor": [
        0,
        0,
        0
      ],
      "name": "coffee_maker_gray",
      "pbrMetallicRoughness": {
        "baseColorFactor": [
          0.20783499999999999,
          0.20783499999999999,
          0.20783499999999999,
          1
        ],
        "metallicFactor": 0,
        "roughnessFactor": 0.84349154199999998
      }
    },
    {
      "doubleSided": true,
      "emissiveFactor": [
        0,
        0,
        0
      ],
      "name": "coffee_maker_plastic",
      "pbrMetallicRoughness": {
        "baseColorFactor": [
          0.015077999999999999,
          0.015077999999999999,
          0.015077999999999999,
          1
        ],
        "metallicFactor": 0,
        "roughnessFactor": 0.98550856890000005
      }
    },
    {
      "doubleSided": true,
      "emissiveFactor": [
        0,
        0,
        0
      ],
      "name": "coffee_maker_ss",
      "pbrMetallicRoughness": {
        "baseColorFactor": [
          1,
          1,
          1,
          1
        ],
        "baseColorTexture": {
          "index": 0,
          "texCoord": 0
        },
        "metallicFactor": 0,
        "roughnessFactor": 0.77103407330000007
      }
    },
    {
      "alphaMode": "BLEND",
      "doubleSided": true,
      "emissiveFactor": [
        0,
        0,
        0
      ],
      "name": "coffee_maker_transparent",
      "pbrMetallicRoughness": {
        "baseColorFactor": [
          0.49213699999999999,
          0.49213699999999999,
          0.49213699999999999,
          0.48148099999999999
        ],
        "metallicFactor": 0,
        "roughnessFactor": 0.84349154199999998
      }
    }
  ],
  "meshes": [
    {
      "primitives": [
        {
          "attributes": {
            "NORMAL": 1,
            "POSITION": 0
          },
          "indices": 2,
          "material": 0,
          "mode": 4
        }
      ]
    },
    {
      "primitives": [
        {
          "attributes": {
            "NORMAL": 4,
            "POSITION": 3
          },
          "indices": 5,
          "material": 1,
          "mode": 4
        }
      ]
    },
    {
      "primitives": [
        {
          "attributes": {
            "NORMAL": 7,
            "POSITION": 6
          },
          "indices": 8,
          "material": 2,
          "mode": 4
        }
      ]
    },
    {
      "primitives": [
        {
          "attributes": {
            "NORMAL": 10,
            "POSITION": 9
          },
          "indices": 11,
          "material": 3,
          "mode": 4
        }
      ]
    },
    {
      "primitives": [
        {
          "attributes": {
            "NORMAL": 13,
            "POSITION": 12
          },
          "indices": 14,
          "material": 4,
          "mode": 4
        }
      ]
    },
    {
      "primitives": [
        {
          "attributes": {
            "NORMAL": 16,
            "POSITION": 15,
            "TEXCOORD_0": 17
          },
          "indices": 18,
          "material": 5,
          "mode": 4
        }
      ]
    },
    {
      "primitives": [
        {
          "attributes": {
            "NORMAL": 20,
            "POSITION": 19
          },
          "indices": 21,
          "material": 6,
          "mode": 4
        }
      ]
    }
  ],
  "nodes": [
    {
      "children": [
        1
      ],
      "name": "RootNode (gltf orientation matrix)",
      "rotation": [
        -0.70710678118654746,
        -0,
        -0,
        0.70710678118654757
      ]
    },
    {
      "children": [
        2
      ],
      "name": "RootNode (model correction matrix)"
    },
    {
      "children": [
        3,
        4,
        5,
        6,
        7,
        8,
        9
      ],
      "name": "fancycoffeemachine.obj.cleaner.materialmerger.gles"
    },
    {
      "mesh": 0,
      "name": ""
    },
    {
      "mesh": 1,
      "name": ""
    },
    {
      "mesh": 2,
      "name": ""
    },
    {
      "mesh": 3,
      "name": ""
    },
    {
      "mesh": 4,
      "name": ""
    },
    {
      "mesh": 5,
      "name": ""
    },
    {
      "mesh": 6,
      "name": ""
    }
  ],
  "samplers": [
    {
      "magFilter": 9729,
      "minFilter": 9987,
      "wrapS": 10497,
      "wrapT": 10497
    }
  ],
  "scene": 0,
  "scenes": [
    {
      "name": "OSG_Scene",
      "nodes": [
        0
      ]
    }
  ],
  "textures": [
    {
      "sampler": 0,
      "source": 0
    }
  ]
}

