{
  "accessors": [
    {
      "bufferView": 2,
      "componentType": 5126,
      "count": 65532,
      "max": [
        1.4886202812194824,
        2.7898178100585938,
        1.2892749309539795
      ],
      "min": [
        -1.4797898530960083,
        0.011579008772969246,
        -1.2876508235931396
      ],
      "type": "VEC3"
    },
    {
      "bufferView": 2,
      "byteOffset": 786384,
      "componentType": 5126,
      "count": 65532,
      "max": [
        0.99995642900466919,
        0.99999791383743286,
        0.99999511241912842
      ],
      "min": [
        -0.99993377923965454,
        -0.99998372793197632,
        -0.99991679191589355
      ],
      "type": "VEC3"
    },
    {
      "bufferView": 3,
      "componentType": 5126,
      "count": 65532,
      "max": [
        0.99996578693389893,
        1,
        0.99995601177215576,
        1
      ],
      "min": [
        -0.99999845027923584,
        -1,
        -0.99997562170028687,
        -1
      ],
      "type": "VEC4"
    },
    {
      "bufferView": 3,
      "byteOffset": 1048512,
      "componentType": 5126,
      "count": 65532,
      "max": [
        1,
        1,
        1,
        1
      ],
      "min": [
        1,
        1,
        1,
        1
      ],
      "type": "VEC4"
    },
    {
      "bufferView": 1,
      "componentType": 5126,
      "count": 65532,
      "max": [
        0.99823915958404541,
        0.99719244241714478
      ],
      "min": [
        0.00097465870203450322,
        0.00097465887665748596
      ],
      "type": "VEC2"
    },
    {
      "bufferView": 1,
      "byteOffset": 524256,
      "componentType": 5126,
      "count": 65532,
      "max": [
        0.99823915958404541,
        0.99719244241714478
      ],
      "min": [
        0.00097465870203450322,
        0.00097465887665748596
      ],
      "type": "VEC2"
    },
    {
      "bufferView": 0,
      "componentType": 5125,
      "count": 96861,
      "max": [
        65531
      ],
      "min": [
        0
      ],
      "type": "SCALAR"
    },
    {
      "bufferView": 2,
      "byteOffset": 1572768,
      "componentType": 5126,
      "count": 65534,
      "max": [
        1.3543763160705566,
        2.7499146461486816,
        0.99781250953674316
      ],
      "min": [
        -1.4528733491897583,
        -0.00033047146280296147,
        -1.2494113445281982
      ],
      "type": "VEC3"
    },
    {
      "bufferView": 2,
      "byteOffset": 2359176,
      "componentType": 5126,
      "count": 65534,
      "max": [
        0.99995177984237671,
        1,
        0.99999243021011353
      ],
      "min": [
        -0.99995613098144531,
        -0.99998986721038818,
        -0.99999839067459106
      ],
      "type": "VEC3"
    },
    {
      "bufferView": 3,
      "byteOffset": 2097024,
      "componentType": 5126,
      "count": 65534,
      "max": [
        0.999991774559021,
        0.99985665082931519,
        0.99995940923690796,
        1
      ],
      "min": [
        -0.9999992847442627,
        -1,
        -0.99997824430465698,
        -1
      ],
      "type": "VEC4"
    },
    {
      "bufferView": 3,
      "byteOffset": 3145568,
      "componentType": 5126,
      "count": 65534,
      "max": [
        1,
        1,
        1,
        1
      ],
      "min": [
        1,
        1,
        1,
        1
      ],
      "type": "VEC4"
    },
    {
      "bufferView": 1,
      "byteOffset": 1048512,
      "componentType": 5126,
      "count": 65534,
      "max": [
        0.99839937686920166,
        0.99728626012802124
      ],
      "min": [
        0.00097465759608894587,
        0.00097465876024216413
      ],
      "type": "VEC2"
    },
    {
      "bufferView": 1,
      "byteOffset": 1572784,
      "componentType": 5126,
      "count": 65534,
      "max": [
        0.99839937686920166,
        0.99728626012802124
      ],
      "min": [
        0.00097465759608894587,
        0.00097465876024216413
      ],
      "type": "VEC2"
    },
    {
      "bufferView": 0,
      "byteOffset": 387444,
      "componentType": 5125,
      "count": 99453,
      "max": [
        65533
      ],
      "min": [
        0
      ],
      "type": "SCALAR"
    },
    {
      "bufferView": 2,
      "byteOffset": 3145584,
      "componentType": 5126,
      "count": 4156,
      "max": [
        1.4210169315338135,
        2.7435281276702881,
        1.228568434715271
      ],
      "min": [
        -1.4518438577651978,
        0.019009297713637352,
        -1.2303828001022339
      ],
      "type": "VEC3"
    },
    {
      "bufferView": 2,
      "byteOffset": 3195456,
      "componentType": 5126,
      "count": 4156,
      "max": [
        1,
        1,
        1
      ],
      "min": [
        -1,
        -1,
        -1
      ],
      "type": "VEC3"
    },
    {
      "bufferView": 3,
      "byteOffset": 4194112,
      "componentType": 5126,
      "count": 4156,
      "max": [
        0.99941855669021606,
        0.99893665313720703,
        1,
        1
      ],
      "min": [
        -0.99984651803970337,
        -1,
        -1,
        -1
      ],
      "type": "VEC4"
    },
    {
      "bufferView": 3,
      "byteOffset": 4260608,
      "componentType": 5126,
      "count": 4156,
      "max": [
        1,
        1,
        1,
        1
      ],
      "min": [
        1,
        1,
        1,
        1
      ],
      "type": "VEC4"
    },
    {
      "bufferView": 1,
      "byteOffset": 2097056,
      "componentType": 5126,
      "count": 4156,
      "max": [
        0.99839937686920166,
        0.99716132879257202
      ],
      "min": [
        0.0012965725036337972,
        0.0012954036938026547
      ],
      "type": "VEC2"
    },
    {
      "bufferView": 1,
      "byteOffset": 2130304,
      "componentType": 5126,
      "count": 4156,
      "max": [
        0.99839937686920166,
        0.99716132879257202
      ],
      "min": [
        0.0012965725036337972,
        0.0012954036938026547
      ],
      "type": "VEC2"
    },
    {
      "bufferView": 0,
      "byteOffset": 785256,
      "componentType": 5125,
      "count": 4494,
      "max": [
        4155
      ],
      "min": [
        0
      ],
      "type": "SCALAR"
    }
  ],
  "asset": {
    "extras": {
      "author": "David Wigforss (https://sketchfab.com/dwigfor)",
      "license": "CC-BY-NC-4.0 (http://creativecommons.org/licenses/by-nc/4.0/)",
      "source": "https://sketchfab.com/3d-models/clementine-tree-8dece80994ab4e24bbce686cfb9100cc",
      "title": "Clementine Tree"
    },
    "generator": "Sketchfab-5.65.0",
    "version": "2.0"
  },
  "bufferViews": [
    {
      "buffer": 0,
      "byteLength": 803232,
      "byteOffset": 0,
      "name": "floatBufferViews",
      "target": 34963
    },
    {
      "buffer": 0,
      "byteLength": 2163552,
      "byteOffset": 803232,
      "byteStride": 8,
      "name": "floatBufferViews",
      "target": 34962
    },
    {
      "buffer": 0,
      "byteLength": 3245328,
      "byteOffset": 2966784,
      "byteStride": 12,
      "name": "floatBufferViews",
      "target": 34962
    },
    {
      "buffer": 0,
      "byteLength": 4327104,
      "byteOffset": 6212112,
      "byteStride": 16,
      "name": "floatBufferViews",
      "target": 34962
    }
  ],
  "buffers": [
    {
      "byteLength": 10539216,
      "uri": "scene.bin"
    }
  ],
  "images": [
    {
      "uri": "textures/MAT_Tree_Clementine_baseColor.jpeg"
    },
    {
      "uri": "textures/MAT_Tree_Clementine_normal.png"
    }
  ],
  "materials": [
    {
      "doubleSided": true,
      "emissiveFactor": [
        0,
        0,
        0
      ],
      "name": "MAT_Tree_Clementine",
      "normalTexture": {
        "index": 1,
        "scale": 1,
        "texCoord": 0
      },
      "pbrMetallicRoughness": {
        "baseColorFactor": [
          1,
          1,
          1,
          1
        ],
        "baseColorTexture": {
          "index": 0,
          "texCoord": 0
        },
        "metallicFactor": 0,
        "roughnessFactor": 0.95770514949999996
      }
    }
  ],
  "meshes": [
    {
      "name": "geo1_MAT_Tree_Clementine_0",
      "primitives": [
        {
          "attributes": {
            "COLOR_0": 3,
            "NORMAL": 1,
            "POSITION": 0,
            "TANGENT": 2,
            "TEXCOORD_0": 4,
            "TEXCOORD_1": 5
          },
          "indices": 6,
          "material": 0,
          "mode": 4
        }
      ]
    },
    {
      "name": "geo1_MAT_Tree_Clementine_0",
      "primitives": [
        {
          "attributes": {
            "COLOR_0": 10,
            "NORMAL": 8,
            "POSITION": 7,
            "TANGENT": 9,
            "TEXCOORD_0": 11,
            "TEXCOORD_1": 12
          },
          "indices": 13,
          "material": 0,
          "mode": 4
        }
      ]
    },
    {
      "name": "geo1_MAT_Tree_Clementine_0",
      "primitives": [
        {
          "attributes": {
            "COLOR_0": 17,
            "NORMAL": 15,
            "POSITION": 14,
            "TANGENT": 16,
            "TEXCOORD_0": 18,
            "TEXCOORD_1": 19
          },
          "indices": 20,
          "material": 0,
          "mode": 4
        }
      ]
    }
  ],
  "nodes": [
    {
      "children": [
        1
      ],
      "name": "RootNode (gltf orientation matrix)",
      "rotation": [
        -0.70710678118654746,
        -0,
        -0,
        0.70710678118654757
      ]
    },
    {
      "children": [
        2
      ],
      "name": "RootNode (model correction matrix)"
    },
    {
      "children": [
        3
      ],
      "matrix": [
        1,
        0,
        0,
        0,
        0,
        0,
        1,
        0,
        0,
        -1,
        0,
        0,
        0,
        0,
        0,
        1
      ],
      "name": "mesh.fbx"
    },
    {
      "children": [
        4
      ],
      "name": "RootNode"
    },
    {
      "children": [
        5,
        6,
        7
      ],
      "name": "geo1"
    },
    {
      "mesh": 0,
      "name": "geo1_MAT_Tree_Clementine_0"
    },
    {
      "mesh": 1,
      "name": "geo1_MAT_Tree_Clementine_0"
    },
    {
      "mesh": 2,
      "name": "geo1_MAT_Tree_Clementine_0"
    }
  ],
  "samplers": [
    {
      "magFilter": 9729,
      "minFilter": 9987,
      "wrapS": 10497,
      "wrapT": 10497
    }
  ],
  "scene": 0,
  "scenes": [
    {
      "name": "OSG_Scene",
      "nodes": [
        0
      ]
    }
  ],
  "textures": [
    {
      "sampler": 0,
      "source": 0
    },
    {
      "sampler": 0,
      "source": 1
    }
  ]
}

